<svg xmlns="http://www.w3.org/2000/svg" viewBox="0 0 120 120"><rect width="120" height="120" rx="60" fill="#dce7ef"/><g stroke="#4a3837" stroke-width="3" stroke-linecap="round" stroke-linejoin="round"><path d="M27 91 V55 Q27 22 60 22 Q93 22 93 55 V91 Q87 101 79 90 Q70 102 60 91 Q50 102 41 90 Q33 101 27 91Z" fill="#fffdf5"/><path d="M33 76 L40 79 M80 79 L87 76"/><path d="M92 31 L101 22 M96 39 L108 37" stroke="#c79d6d"/><circle cx="45" cy="61" r="3.2" fill="#4a3837"/><circle cx="75" cy="61" r="3.2" fill="#4a3837"/><ellipse cx="34" cy="71" rx="7" ry="4" fill="#ee9d9c" stroke="none" opacity=".7"/><ellipse cx="86" cy="71" rx="7" ry="4" fill="#ee9d9c" stroke="none" opacity=".7"/><path d="M54 74 Q60 80 66 74" fill="none"/></g></svg>